<?xml version="1.0" encoding="iso-8859-1"?>
<!-- Generator: Adobe Illustrator 19.0.0, SVG Export Plug-In . SVG Version: 6.00 Build 0)  -->
<svg version="1.1" id="Capa_1" xmlns="http://www.w3.org/2000/svg" xmlns:xlink="http://www.w3.org/1999/xlink" x="0px" y="0px"
	 viewBox="0 0 512 512" style="enable-background:new 0 0 512 512;" xml:space="preserve">
<g>
	<path style="fill:#4DBBEB;" d="M75,150c-41.355,0-75-33.645-75-75S33.645,0,75,0s75,33.645,75,75S116.355,150,75,150z M75,30
		c-24.813,0-45,20.187-45,45s20.187,45,45,45s45-20.187,45-45S99.813,30,75,30z"/>
	<path style="fill:#4DBBEB;" d="M75,331c-41.355,0-75-33.645-75-75s33.645-75,75-75s75,33.645,75,75S116.355,331,75,331z M75,211
		c-24.813,0-45,20.187-45,45s20.187,45,45,45s45-20.187,45-45S99.813,211,75,211z"/>
	<path style="fill:#4DBBEB;" d="M75,512c-41.355,0-75-33.645-75-75s33.645-75,75-75s75,33.645,75,75S116.355,512,75,512z M75,392
		c-24.813,0-45,20.187-45,45s20.187,45,45,45s45-20.187,45-45S99.813,392,75,392z"/>
	<path style="fill:#4DBBEB;" d="M467,120H226c-24.813,0-45-20.187-45-45s20.187-45,45-45h241c24.813,0,45,20.187,45,45
		S491.813,120,467,120z M226,60c-8.271,0-15,6.729-15,15s6.729,15,15,15h241c8.271,0,15-6.729,15-15s-6.729-15-15-15H226z"/>
	<path style="fill:#4DBBEB;" d="M467,301H226c-24.813,0-45-20.187-45-45s20.187-45,45-45h241c24.813,0,45,20.187,45,45
		S491.813,301,467,301z M226,241c-8.271,0-15,6.729-15,15s6.729,15,15,15h241c8.271,0,15-6.729,15-15s-6.729-15-15-15H226z"/>
	<path style="fill:#4DBBEB;" d="M467,482H226c-24.813,0-45-20.187-45-45s20.187-45,45-45h241c24.813,0,45,20.187,45,45
		S491.813,482,467,482z M226,422c-8.271,0-15,6.729-15,15s6.729,15,15,15h241c8.271,0,15-6.729,15-15s-6.729-15-15-15H226z"/>
</g>
<g>
</g>
<g>
</g>
<g>
</g>
<g>
</g>
<g>
</g>
<g>
</g>
<g>
</g>
<g>
</g>
<g>
</g>
<g>
</g>
<g>
</g>
<g>
</g>
<g>
</g>
<g>
</g>
<g>
</g>
</svg>
